<?xml version="1.0" encoding="utf-8"?>
<!-- Generator: Adobe Illustrator 21.0.0, SVG Export Plug-In . SVG Version: 6.00 Build 0)  -->
<svg version="1.1" id="Capa_1" xmlns="http://www.w3.org/2000/svg" xmlns:xlink="http://www.w3.org/1999/xlink" x="0px" y="0px"
	 viewBox="0 0 728.9 120.5" style="enable-background:new 0 0 728.9 120.5;" xml:space="preserve">
<style type="text/css">
	.st0{fill:#FFFFFF;}
</style>
<title>logo</title>
<path class="st0" d="M75.4,116.9c0,1.3-1,2.3-2.3,2.3c-0.1,0-0.2,0-0.2,0H54.7c-1.3,0-1.9-0.8-1.8-2.3l4.7-33.4H27l-4.6,33.4
	c0,1.3-1,2.3-2.3,2.3c-0.1,0-0.2,0-0.2,0h-18c-1.4,0-2.1-0.8-1.9-2.3l12.2-87.2c0-1.2,0.9-2.3,2.2-2.3c0.1,0,0.2,0,0.2,0h18.1
	c1.4,0,2.1,0.8,1.9,2.3L30,62.6h30.5L65,29.7c0-1.3,1-2.3,2.3-2.3c0.1,0,0.2,0,0.2,0h18.2c1.3,0,1.9,0.8,1.8,2.3L75.4,116.9z"/>
<path class="st0" d="M153.1,44.8c0,1.2-0.9,2.1-2,2.2c-0.1,0-0.3,0-0.4,0h-35.3l-2.2,15.6h30c1.3,0,1.8,0.7,1.8,2.2l-2.3,15.4
	c-0.3,1.5-1.1,2.3-2.4,2.3h-29.7L108,99.7h42.6c1.3,0,1.8,0.7,1.8,2.2l-2.1,15.1c0,1.2-1,2.3-2.2,2.3c-0.1,0-0.1,0-0.2,0H85
	c-1.4,0-2.1-0.8-1.9-2.3l12.2-87.2c0-1.3,1-2.3,2.3-2.3c0.1,0,0.2,0,0.2,0h55.6c1.3,0,1.9,0.8,1.8,2.3L153.1,44.8z"/>
<path id="_Trazado_compuesto_" class="st0" d="M504.1,39.7c-9.5-8.4-21.5-12.5-36-12.5h-28.3c-2.4,0-4.4,2-4.4,4.4v84.2
	c0,1.8,1.5,3.3,3.3,3.3c0,0,0,0,0,0h29.4c14.4,0,26.4-4.1,35.9-12.7c9.5-8.6,14.3-19.7,14.3-33.4C518.4,59.1,513.6,48.1,504.1,39.7z
	 M486.5,91.7c-5,4.6-11.7,7.2-18.5,7h-6.6c-0.5,0-0.9-0.4-0.9-0.9V49.8c0-0.5,0.4-0.9,0.9-0.9h6.6c7.6,0,13.8,2.1,18.6,6.2
	s7.2,10.3,7.2,18.2C493.8,80.9,491.4,87.2,486.5,91.7L486.5,91.7z"/>
<path id="_Trazado_compuesto_2" class="st0" d="M659.1,46.2l-12,9c-1.1,0.8-2.7,0.6-3.5-0.5c-1.5-2-3.2-3.7-5.2-5.1
	c-2.4-1.6-5.3-2.4-8.2-2.3c-5.4,0-8.1,1.9-8.1,5.7c-0.1,1.5,0.6,3,1.7,4c1.8,1.4,3.9,2.5,6.1,3.3l10.4,4.3
	c7.8,3.2,13.6,6.9,17.4,11.1c3.8,4.2,5.7,9.4,5.7,15.7c0,8.5-3.1,15.3-9.4,20.3s-14.1,7.5-23.7,7.5c-7.5,0.1-15-1.7-21.6-5.4
	c-5.4-3-10-7.3-13.2-12.6c-0.7-1.1-0.4-2.5,0.6-3.2l12.2-9.1c1.1-0.8,2.5-0.6,3.4,0.4c5.4,6.4,11.6,9.6,18.6,9.6
	c6.2,0,9.3-2.2,9.3-6.5c0.1-1.7-0.6-3.4-1.9-4.4c-2.3-1.5-4.7-2.8-7.2-3.8l-9.3-4c-15.2-6.6-22.8-15.5-22.8-26.8
	c0-7.9,2.9-14.3,8.8-19.1s13.5-7.2,22.8-7.2c13.7,0,23.6,5.3,29.8,16C660.4,44.1,660.1,45.4,659.1,46.2z"/>
<path id="_Trazado_" class="st0" d="M586,98.8h-38.2c-0.4,0-0.8-0.3-0.8-0.7c0,0,0,0,0,0V83.5c0-0.4,0.3-0.8,0.8-0.8l0,0h24.5
	c2,0,3.7-1.6,3.7-3.6c0,0,0,0,0-0.1V65.7c0-1.8-1.5-3.3-3.3-3.3h-24.9c-0.4,0-0.8-0.3-0.8-0.8c0,0,0,0,0,0V49.6
	c0-0.4,0.3-0.8,0.8-0.8l0,0h36.8c1.6,0,3.1-0.9,3.1-2.5v-15c0-2.3-1.9-4.2-4.2-4.2h-55.9c-2.1,0-3.8,1.7-3.8,3.9v84.9
	c0,1.8,1.4,3.2,3.2,3.2h58.5c2,0,3.6-1.6,3.6-3.6c0,0,0,0,0,0v-13.8C588.9,100.1,587.6,98.8,586,98.8z"/>
<path id="_Trazado_2" class="st0" d="M426.2,27.4h-18c-1.6-0.1-3,1.2-3.1,2.8V73l-47.8-44.3c-0.9-1-2.2-1.7-3.6-1.7h-2.8
	c-1.6,0-2.9,1.3-2.9,3.8v85.5c-0.1,1.6,1.2,3,2.9,3.1h18c1.6-0.1,2.9-1.5,2.9-3.1V72.5l5.2,4.9l42.4,40c1.2,1.2,2.8,1.9,4.5,2h1.6
	c2.4,0,3.8-1.3,3.8-2.9V30.2C429.1,28.6,427.8,27.4,426.2,27.4z"/>
<g id="_Grupo_">
	<path id="_Trazado_compuesto_3" class="st0" d="M699.7,64.1c15,0,27.2,12.1,27.2,27.1c0,15-12.1,27.2-27.1,27.2
		c-15,0-27.2-12.1-27.2-27.1c0,0,0-0.1,0-0.1C672.6,76.2,684.7,64.1,699.7,64.1 M699.7,61.9c-16.2-0.1-29.3,13-29.4,29.2
		s13,29.3,29.2,29.4s29.3-13,29.4-29.2c0,0,0-0.1,0-0.1C728.9,75.1,715.8,61.9,699.7,61.9C699.7,61.9,699.7,61.9,699.7,61.9z"/>
	<g id="_Grupo_2">
		<g id="_Grupo_3">
			<path id="_Trazado_compuesto_4" class="st0" d="M688.3,94.1l0.4-0.3c0.3-0.2,0.6-0.3,1-0.4c0.4,0,0.9,0.4,1.3,1.1
				c0.2,0.3,0.4,0.7,0.4,1.1c0,0.3-0.1,0.5-0.3,0.7c-0.2,0.2-0.4,0.4-0.6,0.5l-0.7,0.4c-0.4,0.2-0.9,0.4-1.3,0.5
				c-0.6,0.2-1.3,0.3-2,0.3c-0.6,0-1.3-0.1-1.9-0.2c-0.7-0.2-1.4-0.5-2-0.8c-0.7-0.4-1.3-0.9-1.8-1.4c-0.6-0.6-1-1.4-1.3-2.2
				c-0.4-0.9-0.5-1.9-0.5-2.9c0-1,0.2-1.9,0.5-2.8c0.3-0.8,0.8-1.5,1.3-2.1c0.5-0.6,1.2-1,1.8-1.4c1.2-0.7,2.6-1.1,4-1.1
				c1.2,0,2.3,0.3,3.4,0.9l0.5,0.3l0.6,0.4c0.3,0.2,0.5,0.6,0.5,1c0,0.4-0.2,0.8-0.4,1.1c-0.5,0.7-1,1.1-1.4,1.1
				c-0.4-0.1-0.7-0.2-1-0.4c-0.6-0.5-1.4-0.7-2.2-0.7c-0.9,0-1.8,0.3-2.6,0.9c-0.4,0.3-0.8,0.8-1,1.2c-0.5,1.2-0.5,2.5,0,3.6
				c0.2,0.5,0.6,0.9,1,1.3c0.7,0.6,1.6,0.9,2.5,0.9c0.4,0,0.8-0.1,1.2-0.2C687.8,94.4,688.1,94.3,688.3,94.1z"/>
			<path id="_Trazado_compuesto_5" class="st0" d="M698.4,83c1.9,0,3.8,0.8,5.2,2.2c1.4,1.4,2.2,3.3,2.2,5.3c0.1,2-0.7,4-2.1,5.5
				c-1.3,1.5-3.2,2.3-5.1,2.2c-2,0-3.9-0.8-5.2-2.2c-1.4-1.4-2.2-3.3-2.1-5.3c0-1.1,0.2-2.1,0.6-3.1c0.4-0.9,0.9-1.7,1.6-2.4
				c0.7-0.7,1.5-1.2,2.3-1.6C696.6,83.2,697.5,83,698.4,83z M694.8,90.6c0,1.1,0.4,2.1,1.2,2.9c1.4,1.4,3.6,1.5,5,0.1
				c0,0,0.1-0.1,0.1-0.1c0.8-0.8,1.2-1.8,1.1-2.9c0.1-1.1-0.4-2.2-1.2-2.9c-0.7-0.7-1.6-1.1-2.6-1.1c-1,0-1.9,0.4-2.6,1.1
				C695.1,88.4,694.7,89.5,694.8,90.6L694.8,90.6z"/>
			<path id="_Trazado_compuesto_6" class="st0" d="M721.9,83.8c0.1,0.2,0.2,0.4,0.2,0.5c0,0.2,0,0.5,0,0.7v11.2
				c0,0.9-0.3,1.5-0.8,1.6c-0.3,0.1-0.7,0.1-1,0.1c-0.3,0-0.6,0-0.9-0.1c-0.2,0-0.4-0.1-0.5-0.2c-0.1-0.1-0.2-0.2-0.3-0.4
				c-0.1-0.3-0.1-0.7-0.1-1v-6.8c-0.3,0.4-0.8,1.1-1.5,2s-1,1.5-1.2,1.7l-0.4,0.5c-0.1,0.1-0.3,0.3-0.5,0.4c-0.5,0.3-1.1,0.3-1.7,0
				c-0.2-0.1-0.4-0.2-0.5-0.4l-0.2-0.2c-0.3-0.3-0.8-1-1.6-2.1c-0.8-1.1-1.2-1.7-1.3-1.8v6.8c0,0.2,0,0.5,0,0.7
				c0,0.2-0.1,0.4-0.2,0.5c-0.2,0.4-0.7,0.5-1.6,0.5s-1.3-0.2-1.5-0.5c-0.1-0.2-0.2-0.3-0.2-0.5c0-0.2,0-0.5,0-0.7V85
				c0-0.2,0-0.5,0-0.7c0-0.2,0.1-0.4,0.2-0.5c0.2-0.3,0.7-0.5,1.6-0.5c0.3,0,0.6,0,0.9,0.1c0.2,0,0.4,0.1,0.5,0.3l0.1,0.1l4.5,6
				c2.3-3,3.8-5,4.5-6c0.2-0.4,0.8-0.5,1.6-0.5S721.7,83.4,721.9,83.8z"/>
		</g>
		<g id="_Grupo_4">
			<ellipse id="_Trazado_3" class="st0" cx="677" cy="96.5" rx="1.8" ry="1.8"/>
		</g>
	</g>
</g>
<path class="st0" d="M217.7,28.8c-3.1,5.5-9.6,18.2-13.4,25.1c-0.8,1.5-2.7,2-4.2,1.2c-0.4-0.3-0.8-0.6-1.1-1.1
	c-5.8-8.8-11.1-17.6-15.5-25.2c-0.6-1-1.6-1.6-2.8-1.6h-18.3c-1.7,0-3,1.4-3,3.1c0,0.6,0.2,1.1,0.5,1.6c14.4,24,24.6,40.7,29,47.1
	c0.7,1,0.7,2.2,0.2,3.2L171.2,115c-0.8,1.6-0.2,3.5,1.3,4.3c0.4,0.2,0.9,0.4,1.5,0.4h18.7c1.1,0,2.1-0.6,2.6-1.6
	c21.2-38.1,33.2-59.7,35-62.8c3.9-7.1,8.4-15.8,12.3-23.5c0.8-1.6,0.1-3.5-1.5-4.3c-0.4-0.2-0.9-0.3-1.4-0.3h-19.5
	C219.2,27.2,218.2,27.8,217.7,28.8z"/>
<path class="st0" d="M341.9,111.4L285.5,4.5c-1.6-3.2-3.8-4.5-8.1-4.5h-0.1c-3.2-0.1-6.2,1.5-7.9,4.2l-56.5,107.3
	c-2,3.7,1.2,7.9,5.9,7.9h4.4c3.2-0.7,6.2-2,8.8-3.9c4.5-3.2,6.6-9,11.9-11.2c1.2-0.4,2.4-0.7,3.6-1c2.1-0.4,3.8-1.8,4.6-3.7
	c0.7-1.7,0.8-2.8,2.1-4.1c1.6-1.5,3.6-2.3,5.5-3.5c0.8-0.5,1.5-1.2,2-2l7.6-12.5c0.6-1,1.5-1.7,2.5-2.2l7.2-3.6V51.8
	c-0.4-0.6-0.7-1-1.4-0.9c-0.8,0.1-1.6,0.4-2.2,1c-0.6,0.6-1.2,1.1-1.9,1.6c-2,1.2-4.5,0.5-6.7,0.4c-0.4,0-0.9-0.1-1.3,0
	s-0.9,0.1-1.3,0.1c-0.4,0-0.8,0-1.2,0c-0.4-0.1-0.8-0.2-1.1-0.3c-0.5-0.1-1-0.5-1.2-1c-0.2-0.6,0.6-0.6,0.9-0.8
	c0.9-0.4,0.9-1.5,1.2-2.3c0.5-1.3,1.1-2.8,2.4-3.4c1.1-0.5,2.5-0.2,3.5-0.9c1.5-0.9,1.6-3,2.4-4.6c0.7-1.4,2-2.3,3.6-2.6
	c1.5-0.2,3.1,0.2,4.3,1.1c-0.1-0.4-0.1-0.9,0.1-1.3c0.3-0.3,0.8-0.4,1.1-0.1c0.6,0.4,0.4,1.7,0.4,2.4v31.1l1.8-0.8
	c2.9-1.4,6.4-0.1,7.7,2.8c0,0.1,0.1,0.2,0.1,0.2l2.2,5.3c1.4,3.3,2.6,6.7,4.1,10c1.2,2.9,2.3,6.5,4.3,9c2.4,2.9,7.3,3.4,9.2,6.6
	c1,1.8,1.2,4,2.6,5.5c1.1,1.2,3.2,1.2,4.8,1.5c3.6,0.7,4,3.6,5.9,6.4c0.5,0.8,1.2,1.5,2.1,1.9h10.5
	C340.6,119.3,343.8,115.1,341.9,111.4z"/>
<path class="st0" d="M291.6,84.6c-0.7-0.8-1.8-0.8-2.6-0.2c-1.2,1-2.3,2.2-3.2,3.4c-1,1.2-0.3,1.8-0.5,3c-0.4,2.1-3.2,1.8-4.6,2.7
	c-1.9,1.4,0.3,3.2,0.3,4.6s-2.7,2.2-2.5,3.9c0.3,2.3,3.2,1.9,4.9,1.5c2.6-0.6,5-1.5,7.7-1.7c2-0.1,4.8-0.2,5.9-2.1
	c1.7-2.9-2.5-7.1-3.5-9.7C292.9,88.4,292.9,86,291.6,84.6z"/>
</svg>
